<?xml version="1.0" encoding="UTF-8"?>
<!DOCTYPE svg PUBLIC "-//W3C//DTD SVG 1.1//EN" "http://www.w3.org/Graphics/SVG/1.1/DTD/svg11.dtd">
<svg xmlns="http://www.w3.org/2000/svg" version="1.1" width="646px" height="730px" style="shape-rendering:geometricPrecision; text-rendering:geometricPrecision; image-rendering:optimizeQuality; fill-rule:evenodd; clip-rule:evenodd" xmlns:xlink="http://www.w3.org/1999/xlink">
<g><path style="opacity:0.988" fill="#0e6db8" d="M 304.5,-0.5 C 305.833,-0.5 307.167,-0.5 308.5,-0.5C 310.144,0.316435 311.31,1.64977 312,3.5C 312.667,33.1667 312.667,62.8333 312,92.5C 308.921,100.58 303.421,106.414 295.5,110C 230.167,147.667 164.833,185.333 99.5,223C 95.8549,226.453 93.3549,230.62 92,235.5C 91.3333,282.5 91.3333,329.5 92,376.5C 93.1824,378.357 94.849,379.357 97,379.5C 99.9922,378.755 102.826,377.588 105.5,376C 137.67,357.081 170.003,338.414 202.5,320C 207.867,316.1 211.367,310.934 213,304.5C 213.667,293.5 213.667,282.5 213,271.5C 211.221,266.574 208.055,265.407 203.5,268C 183.915,279.958 163.915,291.125 143.5,301.5C 140.832,301.255 138.998,299.921 138,297.5C 137.333,286.167 137.333,274.833 138,263.5C 139.267,259.131 141.433,255.297 144.5,252C 196.833,221.667 249.167,191.333 301.5,161C 304.167,160.333 306.833,160.333 309.5,161C 310.667,161.5 311.5,162.333 312,163.5C 312.667,225.5 312.667,287.5 312,349.5C 310.078,355.525 306.578,360.359 301.5,364C 206.167,419 110.833,474 15.5,529C 11.7824,531.298 7.78238,531.965 3.5,531C 2.10679,529.829 1.27346,528.329 1,526.5C 0.333333,412.5 0.333333,298.5 1,184.5C 3.57374,174.923 9.40707,168.09 18.5,164C 114.022,109.271 209.355,54.4373 304.5,-0.5 Z"/></g>
<g><path style="opacity:0.987" fill="#f29800" d="M 337.5,-0.5 C 339.167,-0.5 340.833,-0.5 342.5,-0.5C 364.104,11.9731 385.771,24.4731 407.5,37C 412.252,40.4136 415.419,44.9136 417,50.5C 418.32,136.798 418.987,223.131 419,309.5C 421.36,317.193 426.36,322.193 434,324.5C 436.071,323.636 437.738,322.303 439,320.5C 439.333,236.167 439.667,151.833 440,67.5C 441.664,62.9617 444.831,61.4617 449.5,63C 474.744,76.8692 499.577,91.3692 524,106.5C 525.92,109.339 527.587,112.339 529,115.5C 530.323,201.123 530.989,286.79 531,372.5C 534.092,381.259 540.092,386.926 549,389.5C 551.151,389.357 552.818,388.357 554,386.5C 554.008,301.11 554.675,215.777 556,130.5C 558.317,127.903 561.15,127.07 564.5,128C 587.833,141.333 611.167,154.667 634.5,168C 639.797,172.124 643.463,177.29 645.5,183.5C 645.5,298.167 645.5,412.833 645.5,527.5C 641.217,532.324 636.217,532.824 630.5,529C 570.996,494.747 511.329,460.747 451.5,427C 414.996,404.245 377.996,382.245 340.5,361C 337.433,357.703 335.267,353.869 334,349.5C 333.333,234.167 333.333,118.833 334,3.5C 334.69,1.64977 335.856,0.316435 337.5,-0.5 Z"/></g>
<g><path style="opacity:0.988" fill="#23ac37" d="M 326.5,729.5 C 324.167,729.5 321.833,729.5 319.5,729.5C 315.05,728.285 310.717,726.451 306.5,724C 211.833,669.333 117.167,614.667 22.5,560C 13.6068,555.044 13.2735,549.711 21.5,544C 119.036,487.733 216.702,431.733 314.5,376C 322.373,374.501 329.706,375.834 336.5,380C 357.167,392 377.833,404 398.5,416C 401.723,419.112 402.223,422.612 400,426.5C 331.497,466.752 262.831,506.752 194,546.5C 191.965,550.302 192.798,553.469 196.5,556C 203.54,559.753 210.874,560.42 218.5,558C 286.873,518.147 355.54,478.814 424.5,440C 431.871,438.69 438.871,439.69 445.5,443C 465.003,454.586 484.67,465.919 504.5,477C 510.375,479.569 512.208,483.736 510,489.5C 441.497,529.752 372.831,569.752 304,609.5C 301.577,614.161 302.744,617.661 307.5,620C 316.843,624.756 325.843,624.09 334.5,618C 398.67,580.414 463.003,543.081 527.5,506C 536.515,501.387 545.515,501.387 554.5,506C 578.665,519.915 602.665,534.081 626.5,548.5C 628.283,552.539 627.616,556.039 624.5,559C 528.003,614.414 431.67,670.081 335.5,726C 332.429,727.296 329.429,728.462 326.5,729.5 Z"/></g>
</svg>
